<mxfile host="app.diagrams.net" modified="2022-06-15T17:12:01.270Z" agent="5.0 (Macintosh; Intel Mac OS X 10_15_7) AppleWebKit/537.36 (KHTML, like Gecko) Chrome/101.0.4951.64 Safari/537.36" etag="xMV8VLDi8-HI7cl_OOwB" version="20.0.1" type="github">
  <diagram id="R2lEEEUBdFMjLlhIrx00" name="Page-1">
    <mxGraphModel dx="1426" dy="685" grid="1" gridSize="10" guides="1" tooltips="1" connect="1" arrows="1" fold="1" page="1" pageScale="1" pageWidth="850" pageHeight="1100" math="0" shadow="0" extFonts="Permanent Marker^https://fonts.googleapis.com/css?family=Permanent+Marker">
      <root>
        <mxCell id="0" />
        <mxCell id="1" parent="0" />
        <mxCell id="0hlZXfyJcXa63XVc60s6-10" value="" style="edgeStyle=orthogonalEdgeStyle;rounded=0;orthogonalLoop=1;jettySize=auto;html=1;" edge="1" parent="1" source="0hlZXfyJcXa63XVc60s6-2" target="0hlZXfyJcXa63XVc60s6-5">
          <mxGeometry relative="1" as="geometry" />
        </mxCell>
        <mxCell id="0hlZXfyJcXa63XVc60s6-13" value="" style="edgeStyle=orthogonalEdgeStyle;rounded=0;orthogonalLoop=1;jettySize=auto;html=1;entryX=0.45;entryY=-0.017;entryDx=0;entryDy=0;entryPerimeter=0;" edge="1" parent="1" source="0hlZXfyJcXa63XVc60s6-2" target="0hlZXfyJcXa63XVc60s6-3">
          <mxGeometry relative="1" as="geometry">
            <mxPoint x="260" y="80" as="targetPoint" />
            <Array as="points">
              <mxPoint x="420" y="140" />
              <mxPoint x="164" y="140" />
            </Array>
          </mxGeometry>
        </mxCell>
        <mxCell id="0hlZXfyJcXa63XVc60s6-14" style="edgeStyle=orthogonalEdgeStyle;rounded=0;orthogonalLoop=1;jettySize=auto;html=1;entryX=0.558;entryY=0;entryDx=0;entryDy=0;entryPerimeter=0;" edge="1" parent="1" target="0hlZXfyJcXa63XVc60s6-4">
          <mxGeometry relative="1" as="geometry">
            <mxPoint x="680" y="80" as="targetPoint" />
            <mxPoint x="420" y="110" as="sourcePoint" />
            <Array as="points">
              <mxPoint x="420" y="140" />
              <mxPoint x="677" y="140" />
            </Array>
          </mxGeometry>
        </mxCell>
        <mxCell id="0hlZXfyJcXa63XVc60s6-2" value="Home" style="rounded=0;whiteSpace=wrap;html=1;strokeColor=default;fillColor=default;" vertex="1" parent="1">
          <mxGeometry x="360" y="50" width="120" height="60" as="geometry" />
        </mxCell>
        <mxCell id="0hlZXfyJcXa63XVc60s6-3" value="About Us" style="rounded=0;whiteSpace=wrap;html=1;strokeColor=default;fillColor=default;" vertex="1" parent="1">
          <mxGeometry x="110" y="180" width="120" height="60" as="geometry" />
        </mxCell>
        <mxCell id="0hlZXfyJcXa63XVc60s6-4" value="Contact Us" style="rounded=0;whiteSpace=wrap;html=1;strokeColor=default;fillColor=default;" vertex="1" parent="1">
          <mxGeometry x="610" y="180" width="120" height="60" as="geometry" />
        </mxCell>
        <mxCell id="0hlZXfyJcXa63XVc60s6-11" value="" style="edgeStyle=orthogonalEdgeStyle;rounded=0;orthogonalLoop=1;jettySize=auto;html=1;" edge="1" parent="1" source="0hlZXfyJcXa63XVc60s6-5" target="0hlZXfyJcXa63XVc60s6-7">
          <mxGeometry relative="1" as="geometry" />
        </mxCell>
        <mxCell id="0hlZXfyJcXa63XVc60s6-17" value="" style="edgeStyle=orthogonalEdgeStyle;rounded=0;orthogonalLoop=1;jettySize=auto;html=1;" edge="1" parent="1" source="0hlZXfyJcXa63XVc60s6-5">
          <mxGeometry relative="1" as="geometry">
            <mxPoint x="500" y="300" as="targetPoint" />
            <Array as="points">
              <mxPoint x="420" y="270" />
              <mxPoint x="500" y="270" />
            </Array>
          </mxGeometry>
        </mxCell>
        <mxCell id="0hlZXfyJcXa63XVc60s6-5" value="Cafe Reviews" style="rounded=0;whiteSpace=wrap;html=1;strokeColor=default;fillColor=default;" vertex="1" parent="1">
          <mxGeometry x="360" y="180" width="120" height="60" as="geometry" />
        </mxCell>
        <mxCell id="0hlZXfyJcXa63XVc60s6-7" value="California" style="rounded=0;whiteSpace=wrap;html=1;strokeColor=default;fillColor=default;" vertex="1" parent="1">
          <mxGeometry x="280" y="300" width="120" height="60" as="geometry" />
        </mxCell>
        <mxCell id="0hlZXfyJcXa63XVc60s6-15" value="New York" style="rounded=0;whiteSpace=wrap;html=1;strokeColor=default;fillColor=default;" vertex="1" parent="1">
          <mxGeometry x="440" y="300" width="120" height="60" as="geometry" />
        </mxCell>
      </root>
    </mxGraphModel>
  </diagram>
</mxfile>
